<svg width="84" height="47" viewBox="0 0 84 47" fill="none" xmlns="http://www.w3.org/2000/svg">
<mask id="path-1-outside-1_625_14" maskUnits="userSpaceOnUse" x="-9" y="-5" width="98" height="57" fill="black">
<rect fill="white" x="-9" y="-5" width="98" height="57"/>
<path d="M11.679 0.454544L21.0653 16.3182H21.429L30.8608 0.454544H41.9744L27.7699 23.7273L42.2926 47H30.9744L21.429 31.1136H21.0653L11.5199 47H0.247159L14.8153 23.7273L0.519886 0.454544H11.679ZM48.2017 47V0.454544H66.5653C70.0956 0.454544 73.1032 1.12879 75.5881 2.47727C78.0729 3.81061 79.9669 5.66667 81.2699 8.04545C82.5881 10.4091 83.2472 13.1364 83.2472 16.2273C83.2472 19.3182 82.5805 22.0455 81.2472 24.4091C79.9138 26.7727 77.982 28.6136 75.4517 29.9318C72.9366 31.25 69.8911 31.9091 66.3153 31.9091H54.6108V24.0227H64.7244C66.6184 24.0227 68.179 23.697 69.4062 23.0455C70.6487 22.3788 71.5729 21.4621 72.179 20.2955C72.8002 19.1136 73.1108 17.7576 73.1108 16.2273C73.1108 14.6818 72.8002 13.3333 72.179 12.1818C71.5729 11.0151 70.6487 10.1136 69.4062 9.47727C68.1638 8.82576 66.5881 8.5 64.679 8.5H58.0426V47H48.2017Z"/>
</mask>
<path d="M11.679 0.454544L21.0653 16.3182H21.429L30.8608 0.454544H41.9744L27.7699 23.7273L42.2926 47H30.9744L21.429 31.1136H21.0653L11.5199 47H0.247159L14.8153 23.7273L0.519886 0.454544H11.679ZM48.2017 47V0.454544H66.5653C70.0956 0.454544 73.1032 1.12879 75.5881 2.47727C78.0729 3.81061 79.9669 5.66667 81.2699 8.04545C82.5881 10.4091 83.2472 13.1364 83.2472 16.2273C83.2472 19.3182 82.5805 22.0455 81.2472 24.4091C79.9138 26.7727 77.982 28.6136 75.4517 29.9318C72.9366 31.25 69.8911 31.9091 66.3153 31.9091H54.6108V24.0227H64.7244C66.6184 24.0227 68.179 23.697 69.4062 23.0455C70.6487 22.3788 71.5729 21.4621 72.179 20.2955C72.8002 19.1136 73.1108 17.7576 73.1108 16.2273C73.1108 14.6818 72.8002 13.3333 72.179 12.1818C71.5729 11.0151 70.6487 10.1136 69.4062 9.47727C68.1638 8.82576 66.5881 8.5 64.679 8.5H58.0426V47H48.2017Z" fill="#3CE6AA"/>
<path d="M11.679 0.454544L15.9821 -2.09159L14.5302 -4.54546H11.679V0.454544ZM21.0653 16.3182L16.7622 18.8643L18.2141 21.3182H21.0653V16.3182ZM21.429 16.3182V21.3182H24.2732L25.7267 18.8734L21.429 16.3182ZM30.8608 0.454544V-4.54546H28.0166L26.563 -2.10071L30.8608 0.454544ZM41.9744 0.454544L46.2423 3.05943L50.8839 -4.54546H41.9744V0.454544ZM27.7699 23.7273L23.502 21.1224L21.8944 23.7564L23.528 26.3743L27.7699 23.7273ZM42.2926 47V52H51.3064L46.5345 44.353L42.2926 47ZM30.9744 47L26.6886 49.5752L28.1456 52H30.9744V47ZM21.429 31.1136L25.7148 28.5385L24.2578 26.1136H21.429V31.1136ZM21.0653 31.1136V26.1136H18.2365L16.7795 28.5385L21.0653 31.1136ZM11.5199 47V52H14.3488L15.8057 49.5752L11.5199 47ZM0.247159 47L-3.99097 44.347L-8.78155 52H0.247159V47ZM14.8153 23.7273L19.0535 26.3802L20.6986 23.7522L19.0758 21.1103L14.8153 23.7273ZM0.519886 0.454544V-4.54546H-8.41935L-3.74055 3.07155L0.519886 0.454544ZM7.37582 3.00068L16.7622 18.8643L25.3685 13.772L15.9821 -2.09159L7.37582 3.00068ZM21.0653 21.3182H21.429V11.3182H21.0653V21.3182ZM25.7267 18.8734L35.1586 3.0098L26.563 -2.10071L17.1312 13.7629L25.7267 18.8734ZM30.8608 5.45454H41.9744V-4.54546H30.8608V5.45454ZM37.7066 -2.15035L23.502 21.1224L32.0377 26.3322L46.2423 3.05943L37.7066 -2.15035ZM23.528 26.3743L38.0508 49.647L46.5345 44.353L32.0117 21.0803L23.528 26.3743ZM42.2926 42H30.9744V52H42.2926V42ZM35.2603 44.4248L25.7148 28.5385L17.1431 33.6888L26.6886 49.5752L35.2603 44.4248ZM21.429 26.1136H21.0653V36.1136H21.429V26.1136ZM16.7795 28.5385L7.23405 44.4248L15.8057 49.5752L25.3512 33.6888L16.7795 28.5385ZM11.5199 42H0.247159V52H11.5199V42ZM4.48529 49.653L19.0535 26.3802L10.5772 21.0743L-3.99097 44.347L4.48529 49.653ZM19.0758 21.1103L4.78032 -2.16246L-3.74055 3.07155L10.5549 26.3443L19.0758 21.1103ZM0.519886 5.45454H11.679V-4.54546H0.519886V5.45454ZM48.2017 47H43.2017V52H48.2017V47ZM48.2017 0.454544V-4.54546H43.2017V0.454544H48.2017ZM75.5881 2.47727L73.2032 6.87186L73.2136 6.87749L73.224 6.88307L75.5881 2.47727ZM81.2699 8.04545L76.8847 10.4475L76.8938 10.4642L76.9031 10.4808L81.2699 8.04545ZM75.4517 29.9318L73.1416 25.4975L73.1307 25.5032L75.4517 29.9318ZM54.6108 31.9091H49.6108V36.9091H54.6108V31.9091ZM54.6108 24.0227V19.0227H49.6108V24.0227H54.6108ZM69.4062 23.0455L71.7507 27.4617L71.7605 27.4565L71.7703 27.4513L69.4062 23.0455ZM72.179 20.2955L67.7532 17.9691L67.7475 17.9798L67.7419 17.9905L72.179 20.2955ZM72.179 12.1818L67.7419 14.4868L67.7599 14.5214L67.7785 14.5558L72.179 12.1818ZM69.4062 9.47727L67.0842 13.9054L67.1055 13.9165L67.1269 13.9275L69.4062 9.47727ZM58.0426 8.5V3.5H53.0426V8.5H58.0426ZM58.0426 47V52H63.0426V47H58.0426ZM53.2017 47V0.454544H43.2017V47H53.2017ZM48.2017 5.45454H66.5653V-4.54546H48.2017V5.45454ZM66.5653 5.45454C69.4664 5.45454 71.6108 6.00766 73.2032 6.87186L77.9729 -1.91732C74.5957 -3.75009 70.7249 -4.54546 66.5653 -4.54546V5.45454ZM73.224 6.88307C74.891 7.77757 76.0662 8.95324 76.8847 10.4475L85.6551 5.64337C83.8676 2.38009 81.2548 -0.156363 77.9522 -1.92853L73.224 6.88307ZM76.9031 10.4808C77.7501 11.9996 78.2472 13.8661 78.2472 16.2273H88.2472C88.2472 12.4066 87.426 8.81857 85.6367 5.61011L76.9031 10.4808ZM78.2472 16.2273C78.2472 18.5788 77.7468 20.4376 76.8923 21.9525L85.6021 26.8657C87.4142 23.6533 88.2472 20.0575 88.2472 16.2273H78.2472ZM76.8923 21.9525C76.0597 23.4284 74.8596 24.6025 73.1416 25.4975L77.7618 34.3662C81.1045 32.6248 83.7679 30.1171 85.6021 26.8657L76.8923 21.9525ZM73.1307 25.5032C71.4935 26.3612 69.2876 26.9091 66.3153 26.9091V36.9091C70.4946 36.9091 74.3796 36.1388 77.7727 34.3605L73.1307 25.5032ZM66.3153 26.9091H54.6108V36.9091H66.3153V26.9091ZM59.6108 31.9091V24.0227H49.6108V31.9091H59.6108ZM54.6108 29.0227H64.7244V19.0227H54.6108V29.0227ZM64.7244 29.0227C67.153 29.0227 69.5873 28.6102 71.7507 27.4617L67.0618 18.6292C66.7707 18.7837 66.0837 19.0227 64.7244 19.0227V29.0227ZM71.7703 27.4513C73.8318 26.3451 75.512 24.7257 76.616 22.6004L67.7419 17.9905C67.6339 18.1985 67.4655 18.4125 67.0422 18.6397L71.7703 27.4513ZM76.6048 22.6218C77.655 20.6239 78.1108 18.4488 78.1108 16.2273H68.1108C68.1108 17.0664 67.9454 17.6034 67.7532 17.9691L76.6048 22.6218ZM78.1108 16.2273C78.1108 14.0032 77.6598 11.8104 76.5795 9.80786L67.7785 14.5558C67.9406 14.8562 68.1108 15.3604 68.1108 16.2273H78.1108ZM76.616 9.87687C75.5006 7.72978 73.7922 6.10601 71.6856 5.02705L67.1269 13.9275C67.5052 14.1213 67.6452 14.3005 67.7419 14.4868L76.616 9.87687ZM71.7283 5.04917C69.5583 3.91122 67.1189 3.5 64.679 3.5V13.5C66.0572 13.5 66.7694 13.7403 67.0842 13.9054L71.7283 5.04917ZM64.679 3.5H58.0426V13.5H64.679V3.5ZM53.0426 8.5V47H63.0426V8.5H53.0426ZM58.0426 42H48.2017V52H58.0426V42Z" fill="white" mask="url(#path-1-outside-1_625_14)"/>
</svg>
