<svg width="59" height="60" viewBox="0 0 59 60" fill="none" xmlns="http://www.w3.org/2000/svg">
<path d="M31.8973 37.2156C27.2012 40.4199 19.4997 47.515 26.262 50.2615C33.0244 53.008 45.4403 43.9859 53.8932 37.1196C56.8061 34.7532 60.3014 26.4474 47.485 30.7154" stroke="white" stroke-width="2.5"/>
<path d="M48.38 33.4356C45.8237 19.0955 36.1096 -4.85251 17.7039 14.0764C-5.30309 37.7376 35.4017 -3.13194 31.8621 41.3224" stroke="white" stroke-width="2.5"/>
<path d="M36.088 27.791L39.0915 31.416L43.3038 31.7548L41.4107 36.3664L42.4482 41.3672L38.2747 40.5923L34.7036 43.3441L34.0173 38.2537L30.7727 34.9536L34.5221 32.5824L36.088 27.791Z" fill="white"/>
<path d="M37.6623 9.03954L39.2258 13.8321L42.9741 16.206L39.7279 19.5037L39.0392 24.5937L35.4694 21.8393L31.2955 22.6111L32.3355 17.6111L30.4446 12.9981L34.6571 12.6623L37.6623 9.03954Z" fill="white"/>
<path d="M29.8862 13.6996L27.0581 16.2916L26.3652 20.385L23.3902 18.0852L19.8273 18.6186L20.8168 14.6052L19.3076 10.8414L22.8941 10.6609L25.5243 7.80136L26.7515 11.7031L29.8862 13.6996Z" fill="white"/>
<path d="M11.0153 22.1366C3.93668 21.5977 -2.65994 41.7281 15.6202 38.3152C4.76599 35.5792 7.59966 25.8426 11.0153 22.1366Z" fill="white" stroke="white" stroke-width="2.5"/>
</svg>
