<svg width="79" height="93" viewBox="0 0 79 93" fill="none" xmlns="http://www.w3.org/2000/svg">
<path d="M21.0176 61.3889C18.9342 61.3889 16.8886 61.3959 14.8151 61.6307C12.7461 61.8649 10.669 62.7389 8.66508 63.2917C7.13659 63.7133 5.58016 64.0544 4.07099 64.5427C3.69462 64.6645 2.37363 64.8851 2.14714 65.2734C2.09836 65.357 1.94441 65.6266 2.02099 65.7201C2.164 65.8949 2.37128 66.0584 2.5624 66.1669C3.8273 66.8853 5.2263 67.3118 6.65714 67.5283C9.0152 67.8853 11.302 68.2391 13.5693 68.9949C14.2685 69.228 14.4751 69.1207 14.2894 69.7939C13.5168 72.5948 11.8127 75.0447 10.3682 77.5155C9.90239 78.3122 11.6449 78.1253 12.0975 78.1253C14.9074 78.1253 17.7387 77.6966 20.534 77.4524C22.1439 77.3118 23.7958 77.2908 25.3279 76.7376C25.8999 76.531 26.3512 76.2732 26.8943 76.0017C27.3002 75.7987 28.2547 75.0641 28.7393 75.2132C29.446 75.4307 30.1528 75.8962 30.8156 76.2224C31.893 76.7527 33.014 77.2227 34.1954 77.4629C37.4056 78.1159 40.7097 78.208 43.9776 78.2304C44.3887 78.2332 44.7224 78.367 44.6662 77.8887C44.5864 77.2106 44.4706 76.479 44.1931 75.8545C43.6135 74.5503 42.7388 73.4943 41.7804 72.4483C41.2905 71.9137 40.7895 71.4024 40.3454 70.8294C40.1143 70.5311 39.8733 70.1982 39.5622 69.9778C39.1967 69.7189 38.3469 69.1703 38.4321 68.6164C38.6163 67.4189 39.233 66.3179 39.8145 65.2786C40.0022 64.9431 41.321 63.1792 40.8448 62.6189C40.7306 62.4846 40.4674 62.3586 40.3296 62.2825C38.9645 61.5273 37.5083 61.2696 35.9668 61.1313C32.2503 60.798 28.4361 60.9632 24.7076 61.0157C23.6627 61.0304 22.6072 61.0983 21.5748 61.2732C21.075 61.3579 20.6386 61.6098 20.1661 61.7673" stroke="white" stroke-width="2.5" stroke-linecap="round"/>
<path d="M18.6312 52.6315C19.9029 51.023 21.7994 49.5202 23.9083 49.3044C26.1856 46.9918 30.6508 48.5342 33.1862 49.6932C35.0872 50.5622 37.0414 51.3837 38.2744 53.1572C39.5675 55.0172 40.2012 57.6017 39.7619 59.8328C39.5043 61.1413 38.7794 62.1825 38.0588 63.2705C36.8795 65.0511 35.1215 66.5203 33.2755 67.5702C31.8107 68.4034 30.2345 69.2895 28.5448 69.5466C27.0729 69.7706 25.5889 69.7426 24.1084 69.6097C20.4305 69.2796 17.0542 66.861 16.1502 63.1916C15.6629 61.2139 15.7638 58.5244 16.2816 56.5633C16.66 55.1299 17.727 53.7752 18.6312 52.6315Z" fill="white"/>
<path d="M56.8816 16C56.8816 17.5363 56.9461 18.9705 56.5418 20.4864C56.3311 21.2768 56.0761 21.9294 55.2434 21.6313C53.6541 21.0623 52.261 20.903 50.636 21.4498C49.8865 21.7019 49.1304 21.9237 48.3788 22.1665C48.1262 22.2481 47.2927 22.7695 47.0385 22.59C46.7651 22.3971 46.6142 21.822 46.5032 21.5382C46.1538 20.6447 45.7823 19.7621 45.4142 18.8762C45.3999 18.8417 45.2936 18.4634 45.1908 18.434C44.8656 18.3411 43.8994 18.8657 43.655 18.9413C42.1637 19.4029 40.6723 19.5737 39.1314 19.7697C38.8721 19.8027 38.3001 19.6744 38.3635 19.9279C38.3669 19.9418 38.3911 19.9357 38.4053 19.9373C39.0674 20.0108 37.8928 19.8574 39.0662 20.0117C40.6799 20.2239 42.2836 20.3934 43.9063 20.5237C44.0012 20.5313 45.9786 20.5585 45.9913 20.775C46.0196 21.2562 45.8662 21.8018 45.6795 22.241C44.9805 23.8857 44.5187 25.7027 44.2321 27.4674C44.1759 27.8133 44.1843 28.1598 44.1437 28.5052C44.1398 28.5378 44.0104 28.8426 44.1344 28.7333C45.1447 27.8417 46.1233 26.9708 47.3735 26.397C48.0828 26.0714 48.8563 25.7175 49.6493 25.7175C50.1422 25.7175 50.6366 25.7059 51.1293 25.7175C52.2877 25.7447 53.0393 26.2808 53.8658 27.0299C54.1524 27.2896 54.8711 27.7015 54.8711 28.1143C54.8711 28.647 54.586 29.2099 54.3684 29.6734C53.5637 31.3875 52.6266 33.0866 51.5761 34.6624C51.1814 35.2543 50.8474 35.6863 50.1426 35.6863C49.5385 35.6863 48.9366 35.6025 48.3229 35.6025C47.4123 35.6025 46.5017 35.6025 45.5911 35.6025C44.7009 35.6025 43.7448 35.476 42.9848 36.04C41.6894 37.0014 41.1237 38.672 40.965 40.2192C40.9522 40.3443 40.9421 40.4881 40.7975 40.5264C40.1335 40.7022 39.3497 40.6 38.666 40.666C37.0749 40.8197 35.5032 41.1063 34.0027 41.6713C33.7464 41.7678 33.2711 41.8868 33.2581 42.2391C33.1547 45.0304 33.2678 47.8423 33.2581 50.6348C33.2562 51.1797 33.1836 51.7267 33.1836 52.2684C33.1836 52.532 33.4327 51.8034 33.5466 51.5656C34.6737 49.212 36.2937 47.2195 37.67 45.0175C38.006 44.4799 38.3074 43.9414 38.6008 43.3839C38.6445 43.3009 38.6927 43.5503 38.759 43.6166C39.1084 43.966 39.5092 44.0731 39.9877 44.1937C41.8999 44.6757 43.9119 44.7235 45.8657 44.9337C46.24 44.974 47.3538 45.3136 47.7133 45.1338C47.8862 45.0474 47.5992 44.764 47.5271 44.5847C47.0364 43.3638 46.3623 41.893 46.3264 40.5636C46.3196 40.3125 48.2186 40.5383 48.3416 40.5404C50.7677 40.5818 53.1123 40.3044 55.5226 40.0796C56.0865 40.027 56.7132 39.9833 57.2772 40.0517C57.5244 40.0817 57.3863 41.3141 57.3889 41.4572C57.4184 43.0797 57.468 44.6966 57.468 46.3206C57.468 46.6772 56.0364 46.8922 55.7926 46.9861C55.4648 47.1123 54.3684 47.5478 54.3684 48.0426C54.3684 48.2346 54.3655 48.4238 54.3871 48.615C54.5445 50.0122 54.443 51.43 54.6198 52.8222C54.6742 53.251 54.7486 53.6478 54.8664 54.0601C54.9915 54.4979 54.9607 53.1509 55.0758 52.7105C55.2485 52.0505 55.3662 51.3787 55.5366 50.7186C55.5572 50.6387 55.6456 50.0472 55.7553 50.0158C57.6781 49.4665 59.8369 49.2859 61.8194 49.1083C61.9849 49.0935 63.3233 49.1437 63.3971 48.9222C63.4248 48.839 63.1533 48.5117 63.1179 48.4568C62.3573 47.2758 61.5336 46.1388 60.7816 44.9523C60.5181 44.5366 60.0248 44.1469 60.3162 43.7097C61.0834 42.559 61.7857 41.2496 62.2709 39.9586C62.5469 39.2241 62.4865 39.2366 63.2482 39.4234C64.2712 39.6743 65.3176 39.8228 66.3571 39.9865C66.7005 40.0406 67.5754 40.3237 67.3996 40.0238C67.0234 39.3821 66.4057 38.8677 65.8405 38.4042C64.5904 37.3791 63.0569 37.1088 61.5635 36.6543C61.2492 36.5587 60.9285 36.6394 60.6048 36.6729C59.5527 36.7818 58.5127 36.7753 57.454 36.7753C56.4809 36.7753 55.5577 36.4741 54.5918 36.3564C54.514 36.347 53.4462 36.289 53.8844 36.1703C54.3445 36.0457 54.8463 35.801 55.2527 35.556C56.1215 35.032 57.1017 34.1861 57.7193 33.3686C58.0516 32.9289 58.582 32.1813 58.557 31.5815C58.5462 31.3208 58.4018 31.0379 58.3522 30.781C58.2666 30.3374 58.2209 29.89 58.18 29.4407C58.134 28.9346 58.0832 28.3944 58.18 27.8909C58.219 27.6885 58.1148 27.1453 58.3057 27.0392C59.2685 26.5043 60.2346 26.016 61.2377 25.5546C62.8763 24.8008 64.6283 24.3412 66.2547 23.5767C66.7351 23.3508 67.1875 23.0361 67.6881 22.8693" stroke="#F9FE64" stroke-width="2" stroke-linecap="round"/>
<path d="M67.5526 22.7471C67.3271 20.3789 66.7111 18.1124 66.4028 15.7616C66.306 15.0237 66.2482 14.3035 66.0291 13.5913C65.9733 13.4102 65.9859 13.3391 66.1728 13.275C67.9567 12.6634 69.6759 11.8932 71.3544 11.0328C73.0959 10.1401 74.9094 9.17684 76.4785 8" stroke="#F9FE64" stroke-width="2" stroke-linecap="round"/>
<path d="M56.8706 16.7064C57.188 16.6667 56.9872 14.3023 56.931 13.9528C56.855 13.4797 56.7646 12.9931 56.7929 12.5113C56.8052 12.3019 57.847 11.9471 58.0359 11.8122C59.8848 10.4915 61.4966 8.66441 63.5732 7.66462C64.2151 7.35553 64.7947 6.93044 65.3772 6.52523C65.755 6.26243 66.1035 5.98588 66.5123 5.76995C66.7285 5.65569 66.8991 5.4396 67.1251 5.36426" stroke="#F9FE64" stroke-width="2" stroke-linecap="round"/>
<path d="M67.0497 6.04254C67.164 5.12846 66.6528 4.01889 66.3764 3.15304C66.3123 2.95195 66.1841 2.72069 66.1841 2.50781" stroke="#F9FE64" stroke-width="2" stroke-linecap="round"/>
<path d="M76.5717 8.63936C76.5717 7.49892 76.6114 6.35363 76.5156 5.21684C76.4795 4.78788 76.5458 4.34496 76.4956 3.91837C76.4373 3.42335 76.4996 2.96228 76.4996 2.43555" stroke="#F9FE64" stroke-width="3" stroke-linecap="round"/>
<path d="M76.6443 9.28857C76.9038 9.34626 77.1086 11.1304 76.9168 11.4928C76.8855 11.5518 75.8734 10.6614 75.8347 10.6271C75.5274 10.3549 75.1772 10.1621 74.8408 9.93781" stroke="#F9FE64" stroke-width="2" stroke-linecap="round"/>
<path d="M14 80C13.8763 80.6512 13.3107 81.2727 13.0444 81.8908C12.8447 82.3547 12.7266 82.8169 12.5556 83.2846C12.3475 83.8536 12.2113 84.4439 12 85" stroke="white" stroke-width="2.5" stroke-linecap="round"/>
<path d="M28 77C27.2522 78.2334 26.3758 79.38 25.6268 80.6115C25.1853 81.3372 24.6424 82.0961 24.3903 82.9151C24.0255 84.1001 23.5537 85.3476 22.9046 86.4126C22.6672 86.802 22.4696 87.2465 22.3013 87.6709C22.0373 88.3368 21.6956 88.9836 21.4487 89.6525C21.2873 90.0899 21.1131 90.5506 21 91" stroke="white" stroke-width="2.5" stroke-linecap="round"/>
<path d="M57 40.5L57.5 44.5L55 49V52.5L56 50L62 48.5L61 41L66 38.5L54 36L58.5 32L57.5 27L67.5 23L66 14L75 9L76.5 10.5V1H66L67 5L57 12.5V21H52L45 23V28L50 26L55 27L52.5 34L49.5 36H43L39.5 40.5L33 42.5L34 49L39 44L47 45L46 41L57 40.5Z" fill="#F9FE64"/>
</svg>
