<svg width="56" height="59" viewBox="0 0 56 59" fill="none" xmlns="http://www.w3.org/2000/svg">
<path d="M7.5 11.5C6.66667 14.6667 6.8 20.3 14 17.5C23 14 12.4907 28.5 26 28.5C41 28.5 32.5 15 41 17.5C47.8 19.5 47.8333 14.3333 47 11.5M10 24.5C7.66667 24.8333 4.8 26.1 12 28.5C19.2 30.9 25 34.5 27 36C29.1667 34.6667 35 31.5 41 29.5C48.5 27 48 27.5 44.5 24.5M2 34.5L7.5 39L6 54C8.16667 50 12.8 44.4 14 54C15.2 63.6 14.5 51.5 14 43.5L27 53L54.5 33V3L27 17.5L2 3V34.5Z" stroke="white" stroke-width="2.5"/>
<path d="M12.5 36C15.5 37 22.5 40.3 26.5 45.5C29.3 41.5 37 37.5 40.5 36" stroke="white" stroke-width="2.5"/>
<path d="M2 34L27 53" stroke="white" stroke-width="2.5"/>
<path d="M13 44L8.5 40.5L7.5 49.5L13 48V44Z" fill="white" stroke="white" stroke-width="2.5"/>
</svg>
