<svg width="96" height="104" viewBox="0 0 96 104" fill="none" xmlns="http://www.w3.org/2000/svg">
<path d="M46.1133 45.7241C48.4324 46.7219 49.5305 50.1719 49.5432 52.1643C49.5569 54.3213 48.5722 56.1478 47.004 57.7852C46.5683 58.2402 44.7733 59.2805 46.4204 59.3094C50.692 59.3844 55.0293 57.4871 56.7613 54.0057C57.6555 52.2083 57.5804 50.0938 57.3756 48.191C57.231 46.8469 56.4812 45.1479 57.2118 43.8387C58.2307 42.013 60.6304 41.3187 60.8158 39.046C60.9903 36.9056 55.1994 39.4449 54.3348 39.7861C51.6571 40.8429 46.8504 42.8428 46.8504 45.8827" stroke="white" stroke-width="3" stroke-linecap="round"/>
<path d="M66.3245 38.966C68.7601 40.3137 71.1578 41.8792 72.315 44.1499C73.5393 46.5524 72.4125 48.9209 71.2476 51.1604C70.9494 51.7336 69.066 53.8252 71.2258 53.1435C74.4973 52.1108 77.9027 50.3802 80.0917 48.1509C84.263 43.9027 80.8358 37.4586 74.9726 35.5217C71.1016 34.243 67.8294 36.8249 65.3442 38.8095" stroke="white" stroke-width="3" stroke-linecap="round"/>
<path d="M83.2898 65.7643C87.8862 54.1249 90.0229 40.8093 82.4071 29.9842C78.3827 24.2638 72.5536 19.6232 66.1563 16.8385C59.5564 13.9656 53.1466 14.2715 46.8792 17.8788C40.9712 21.2792 35.0847 27.0093 33.1188 33.704C30.9245 41.1765 32.5789 49.4565 36.949 55.8026C42.4004 63.7187 50.2123 70.3952 57.7551 76.2619" stroke="white" stroke-width="3" stroke-linecap="round"/>
<path d="M76.6841 70.1243C74.4321 67.6352 71.2008 66.2899 68.3436 68.7616C64.3772 72.1929 65.1816 81.5155 70.8457 82.9405C73.057 83.4968 75.783 82.7065 77.5299 81.2841C80.3668 78.9742 79.9711 74.9722 77.9763 72.2388C76.1296 69.7085 73.0624 70.0931 71.3039 72.4972C69.8674 74.461 71.6822 74.7902 72.878 75.622" stroke="white" stroke-width="3" stroke-linecap="round"/>
<path d="M56.808 75.1992C58.578 76.3055 60.5628 77.0891 62.5406 77.7484C63.8309 78.1785 64.9422 78.7939 66.3232 78.7939" stroke="white" stroke-width="3" stroke-linecap="round"/>
<path d="M83.0277 65.0498C82.6092 68.9562 81.6012 72.2425 79.6445 75.6223" stroke="white" stroke-width="3" stroke-linecap="round"/>
<path d="M67.9093 81.808C63.3524 80.4019 58.7892 78.9701 54.0665 78.23C50.6479 77.6942 47.4035 77.3606 44.3361 75.5909C35.2448 70.3459 28.4947 61.2774 21.281 53.8311" stroke="white" stroke-width="3" stroke-linecap="round"/>
<path d="M29.9016 65.3443C33.4184 73.9873 45.791 86.8495 54.0328 91.7377C60.0656 95.3158 75.2659 95.7343 75.1475 97.7705C74.9305 101.505 55.0097 102.479 52.5246 102.295C47.6095 101.931 37.8527 99.0613 33.9317 96.4764C27.343 92.1329 20.4431 87.2537 15.4542 81.2391C10.5574 75.3354 7.1165 68.1945 4.61857 61.1175C1.12884 51.2307 1.12551 39.8319 4.6184 29.5943C10.4272 12.5688 22.5459 4.48947 42.8276 2.47583C50.0962 1.75418 58.7964 1.52003 65.7196 4.24615C70.8886 6.28146 75.8882 8.73046 79.3669 12.706C83.2806 17.1787 87.0608 20.4591 89.9859 25.5533C95.6907 35.4883 94.9734 47.6226 89.9859 58.3851C86.8626 65.1248 85.7683 67.0328 80.8839 72.6598" stroke="white" stroke-width="3" stroke-linecap="round"/>
</svg>
