<svg width="100" height="100" viewBox="0 0 100 100" fill="none" xmlns="http://www.w3.org/2000/svg">
<path fill-rule="evenodd" clip-rule="evenodd" d="M18.7499 37.5H22.9166V58.3333H77.0832V37.5H81.2499V58.3333H84.3749C84.9501 58.3333 85.4166 58.7998 85.4166 59.375V61.4583C85.4166 62.0335 84.9501 62.5 84.3749 62.5H15.6249C15.0496 62.5 14.5833 62.0335 14.5833 61.4583V59.375C14.5833 58.7998 15.0496 58.3333 15.6249 58.3333H18.7499V37.5ZM20.8333 68.75V83.3333H79.1666V68.75H20.8333ZM18.7499 64.5833C17.5993 64.5833 16.6666 65.516 16.6666 66.6667V85.4167C16.6666 86.5673 17.5993 87.5 18.7499 87.5H81.2499C82.4005 87.5 83.3333 86.5673 83.3333 85.4167V66.6667C83.3333 65.516 82.4005 64.5833 81.2499 64.5833H18.7499Z" fill="white"/>
<path fill-rule="evenodd" clip-rule="evenodd" d="M21.2267 16.6667L16.7574 28.9852C16.6975 29.1504 16.6667 29.3252 16.6667 29.5019V34.4813C16.6667 36.165 18.0156 37.5 19.6429 37.5C21.2702 37.5 22.619 36.165 22.619 34.4813C22.619 33.3306 23.5519 32.3979 24.7023 32.3979C25.8529 32.3979 26.7856 33.3306 26.7856 34.4813C26.7856 36.165 28.1346 37.5 29.7619 37.5C31.3892 37.5 32.7381 36.165 32.7381 34.4813C32.7381 33.3306 33.6708 32.3979 34.8215 32.3979C35.9721 32.3979 36.9048 33.3306 36.9048 34.4813C36.9048 36.165 38.2537 37.5 39.881 37.5C41.5075 37.5 42.8558 36.1663 42.8571 34.4838C42.8581 33.334 43.7906 32.4021 44.9404 32.4021C46.0904 32.4021 47.0229 33.334 47.0237 34.4838C47.0252 36.1663 48.3735 37.5 50 37.5C51.6273 37.5 52.9762 36.165 52.9762 34.4813C52.9762 33.3306 53.909 32.3979 55.0596 32.3979C56.2102 32.3979 57.1429 33.3306 57.1429 34.4813C57.1429 36.165 58.4917 37.5 60.119 37.5C61.7456 37.5 63.094 36.1663 63.0952 34.4838C63.0962 33.334 64.0285 32.4021 65.1785 32.4021C66.3285 32.4021 67.261 33.334 67.2619 34.4838C67.2633 36.1663 68.6117 37.5 70.2381 37.5C71.8654 37.5 73.2144 36.165 73.2144 34.4813C73.2144 33.3306 74.1471 32.3979 75.2977 32.3979C76.4481 32.3979 77.381 33.3306 77.381 34.4813C77.381 36.165 78.7298 37.5 80.3571 37.5C81.9844 37.5 83.3333 36.165 83.3333 34.4813V29.5019C83.3333 29.3252 83.3025 29.1504 83.2427 28.9852L78.7733 16.6667H21.2267ZM78.7008 16.4666C78.7006 16.4664 78.7008 16.4668 78.7008 16.4666V16.4666ZM75.2977 39.5533C74.0069 40.8573 72.22 41.6667 70.2381 41.6667C68.256 41.6667 66.4694 40.8573 65.1785 39.5533C63.8879 40.8573 62.101 41.6667 60.119 41.6667C58.1371 41.6667 56.3502 40.8573 55.0596 39.5533C53.7687 40.8573 51.9821 41.6667 50 41.6667C48.0179 41.6667 46.2312 40.8573 44.9404 39.5533C43.6498 40.8573 41.8629 41.6667 39.881 41.6667C37.899 41.6667 36.1121 40.8573 34.8215 39.5533C33.5306 40.8573 31.744 41.6667 29.7619 41.6667C27.78 41.6667 25.9931 40.8573 24.7023 39.5533C23.4117 40.8573 21.6248 41.6667 19.6429 41.6667C15.6816 41.6667 12.5 38.4331 12.5 34.4813V29.5019C12.5 28.8413 12.6152 28.1854 12.8405 27.5642L17.3826 15.045C17.9339 13.5252 19.3752 12.5 21.004 12.5H78.996C80.6248 12.5 82.066 13.5252 82.6175 15.045L87.1596 27.5642C87.3848 28.1854 87.5 28.8413 87.5 29.5019V34.4813C87.5 38.4331 84.3183 41.6667 80.3571 41.6667C78.3752 41.6667 76.5883 40.8573 75.2977 39.5533Z" fill="white"/>
<path d="M25 53.1252C25 52.55 25.4665 52.0835 26.0417 52.0835H32.2917C32.8669 52.0835 33.3333 52.55 33.3333 53.1252V57.2918C33.3333 57.867 32.8669 58.3335 32.2917 58.3335H26.0417C25.4665 58.3335 25 57.867 25 57.2918V53.1252Z" fill="white"/>
<path d="M29.1667 55.2082C29.1667 54.633 29.6332 54.1665 30.2084 54.1665H36.4584C37.0336 54.1665 37.5001 54.633 37.5001 55.2082V57.2915C37.5001 57.8667 37.0336 58.3332 36.4584 58.3332H30.2084C29.6332 58.3332 29.1667 57.8667 29.1667 57.2915V55.2082Z" fill="white"/>
<path d="M45.8333 55.2085C45.8333 56.9343 44.4341 58.3335 42.7083 58.3335C40.9824 58.3335 39.5833 56.9343 39.5833 55.2085C39.5833 53.4827 40.9824 52.0835 42.7083 52.0835C44.4341 52.0835 45.8333 53.4827 45.8333 55.2085Z" fill="white"/>
</svg>
