<svg width="71" height="45" viewBox="0 0 71 45" fill="none" xmlns="http://www.w3.org/2000/svg">
<path d="M46.0037 16.2666C42.0037 15.4666 43.337 8.26664 44.5037 4.76664C68.1037 -1.23336 71.6703 6.26664 70.5037 10.7666C64.0037 12.9333 50.0037 17.0666 46.0037 16.2666Z" fill="white"/>
<path d="M65.5037 19.2666L44.5037 21.7666C40.5037 30.2666 58.5037 30.2666 62.0037 27.2666C64.8037 24.8666 65.5037 20.9333 65.5037 19.2666Z" fill="white"/>
<path d="M42.5037 36.2666C44.1703 35.2666 48.8037 33.5666 54.0037 34.7666C60.5037 36.2666 42.5037 46.7666 42.5037 36.2666Z" fill="white"/>
<path d="M23.0037 15.7669L17.0037 3.76689C25.337 2.43355 41.0037 0.566885 37.0037 3.76689C33.0037 6.96689 35.337 18.4336 37.0037 23.7669C32.337 26.1002 18.8036 29.9669 2.00365 26.7669C2.80365 5.16689 16.337 10.4336 23.0037 15.7669Z" stroke="white" stroke-width="2.5"/>
<path d="M2.00365 32.7666C9.33698 34.5999 26.9037 36.5666 38.5037 29.7666C34.0037 50.2666 1.60485 43.2666 2.00365 32.7666Z" stroke="white" stroke-width="2.5"/>
</svg>
