<svg width="65" height="46" viewBox="0 0 65 46" fill="none" xmlns="http://www.w3.org/2000/svg">
<path d="M26.5 26.1647C35.1667 9.66472 54.5 -9.83524 63 34.6647C52.8333 40.9981 26.4 50.7648 2 39.1648C3 7.16516 27 -8.83484 32 10.1652C32 21.7651 25.6667 16.665 22.5 12.665C23.8333 16.9984 24.8 27.165 18 33.165C9.5 40.665 24 23.165 29.5 28.165" stroke="white" stroke-width="2.5"/>
<path d="M45 10.665L50.0256 19.0174L59.2658 21.3753L53.1315 28.8952L53.8168 38.7048L45 35L36.1832 38.7048L36.8685 28.8952L30.7342 21.3753L39.9744 19.0174L45 10.665Z" fill="white"/>
</svg>
